<?xml version="1.0" encoding="utf-8"?>
<!-- Generator: Adobe Illustrator 18.0.0, SVG Export Plug-In . SVG Version: 6.00 Build 0)  -->
<!DOCTYPE svg PUBLIC "-//W3C//DTD SVG 1.1//EN" "http://www.w3.org/Graphics/SVG/1.1/DTD/svg11.dtd">
<svg version="1.1" id="Layer_1" xmlns="http://www.w3.org/2000/svg" xmlns:xlink="http://www.w3.org/1999/xlink" x="0px" y="0px"
	 viewBox="0 0 47.3 44.1" enable-background="new 0 0 47.3 44.1" xml:space="preserve">
<g>
	<defs>
		<rect id="SVGID_1_" y="0" width="47.3" height="44.1"/>
	</defs>
	<clipPath id="SVGID_2_">
		<use xlink:href="#SVGID_1_"  overflow="visible"/>
	</clipPath>
	<path clip-path="url(#SVGID_2_)" fill="#30333C" d="M43.9,44.1H3.5C1.6,44.1,0,42.2,0,40V13.2c0-2.3,1.6-4.1,3.5-4.1h40.4
		c1.9,0,3.5,1.8,3.5,4.1V40C47.3,42.2,45.8,44.1,43.9,44.1 M3.5,11.1c-0.8,0-1.5,1-1.5,2.1V40c0,1.1,0.7,2.1,1.5,2.1h40.4
		c0.8,0,1.5-1,1.5-2.1V13.2c0-1.1-0.7-2.1-1.5-2.1H3.5z"/>
	<path clip-path="url(#SVGID_2_)" fill="#30333C" d="M31,11.1H16.4c-0.9,0-1.5-0.8-1.5-1.8V1.8c0-1,0.7-1.8,1.5-1.8H31
		c0.9,0,1.5,0.8,1.5,1.8v7.6C32.5,10.3,31.8,11.1,31,11.1 M16.8,9.1h13.7V2H16.8V9.1z"/>
	<path clip-path="url(#SVGID_2_)" fill="#30333C" d="M23.7,37.1L23.7,37.1c-2.9,0-5.5-1.1-7.5-3.1c-2-2-3.1-4.6-3.1-7.5
		c0-2.8,1.1-5.5,3.1-7.4c2-2,4.6-3.1,7.4-3.1h0c2.8,0,5.5,1.1,7.4,3.1c4.1,4.1,4.1,10.8-0.1,14.9C29.1,36,26.5,37.1,23.7,37.1
		 M23.7,18c-2.3,0-4.4,0.9-6,2.5c-1.6,1.6-2.5,3.8-2.5,6c0,2.3,0.9,4.4,2.5,6c1.6,1.6,3.7,2.5,6,2.5h0c2.3,0,4.4-0.9,6-2.5
		c3.3-3.3,3.4-8.7,0-12.1C28.1,18.9,26,18,23.7,18L23.7,18z"/>
	<path clip-path="url(#SVGID_2_)" fill="#30333C" d="M9.1,16.2c0,0.8-0.7,1.5-1.5,1.5c-0.8,0-1.5-0.7-1.5-1.5c0-0.8,0.7-1.5,1.5-1.5
		C8.4,14.7,9.1,15.4,9.1,16.2"/>
	<line clip-path="url(#SVGID_2_)" fill="#3677FD" x1="39.4" y1="7.5" x2="39.4" y2="10.1"/>
	<path clip-path="url(#SVGID_2_)" fill="#30333C" d="M39.4,11.1c-0.6,0-1-0.4-1-1V7.5c0-0.6,0.4-1,1-1c0.6,0,1,0.4,1,1v2.6
		C40.4,10.6,39.9,11.1,39.4,11.1"/>
</g>
</svg>
