<?xml version="1.0" encoding="utf-8"?>
<!-- Generator: Adobe Illustrator 18.0.0, SVG Export Plug-In . SVG Version: 6.00 Build 0)  -->
<!DOCTYPE svg PUBLIC "-//W3C//DTD SVG 1.1//EN" "http://www.w3.org/Graphics/SVG/1.1/DTD/svg11.dtd">
<svg version="1.1" id="Layer_1" xmlns="http://www.w3.org/2000/svg" xmlns:xlink="http://www.w3.org/1999/xlink" x="0px" y="0px"
	 viewBox="0 0 54.5 55.6" enable-background="new 0 0 54.5 55.6" xml:space="preserve">
<g>
	<defs>
		<rect id="SVGID_1_" y="0" width="54.5" height="55.6"/>
	</defs>
	<clipPath id="SVGID_2_">
		<use xlink:href="#SVGID_1_"  overflow="visible"/>
	</clipPath>
	<path clip-path="url(#SVGID_2_)" fill="#30333C" d="M43.9,55.6L43.9,55.6c-2.9,0-5.5-1.1-7.5-3.1c-2-2-3.1-4.6-3.1-7.5
		c0-2.8,1.1-5.5,3.1-7.4c4.1-4.1,10.8-4.1,14.9,0c4.1,4.1,4.1,10.8-0.1,14.9C49.4,54.5,46.7,55.6,43.9,55.6 M43.9,36.6
		c-2.2,0-4.4,0.8-6,2.5c-1.6,1.6-2.5,3.7-2.5,6c0,2.3,0.9,4.4,2.5,6c1.6,1.6,3.7,2.5,6,2.5c2.3,0,4.4-0.9,6-2.5
		c1.6-1.6,2.5-3.7,2.5-6c0-2.3-0.9-4.4-2.5-6C48.3,37.4,46.1,36.6,43.9,36.6"/>
	<path clip-path="url(#SVGID_2_)" fill="#30333C" d="M30.9,42.4c0.5,0.1,0.9,0.7,0.7,1.2c-0.1,0.5-0.7,0.9-1.2,0.7l-7.7-2
		c-0.5-0.1-0.9-0.7-0.7-1.2c0.1-0.5,0.7-0.9,1.2-0.7L30.9,42.4z"/>
	<path clip-path="url(#SVGID_2_)" fill="#30333C" d="M36.5,21.1L36.5,21.1C33.6,21.1,31,20,29,18c-4.1-4.1-4.1-10.8,0.1-14.9
		S39.9-1,44,3.1c2,2,3.1,4.6,3.1,7.5c0,2.8-1.1,5.5-3.1,7.4C41.9,20,39.3,21.1,36.5,21.1 M36.5,2c-2.3,0-4.4,0.9-6,2.5
		c-3.3,3.3-3.4,8.7,0,12.1c1.6,1.6,3.7,2.5,6,2.5h0c2.3,0,4.4-0.9,6-2.5c1.6-1.6,2.5-3.7,2.5-6c0-2.3-0.9-4.4-2.5-6
		C40.9,2.9,38.8,2,36.5,2L36.5,2z"/>
	<path clip-path="url(#SVGID_2_)" fill="#30333C" d="M10.5,46.8c-2.7,0-5.4-1-7.5-3.1c-2-2-3.1-4.6-3.1-7.5c0-2.8,1.1-5.5,3.1-7.4
		c4.1-4.1,10.8-4.1,14.9,0v0c4.1,4.1,4.1,10.8-0.1,14.9C15.9,45.8,13.2,46.8,10.5,46.8 M10.5,27.8c-2.2,0-4.4,0.8-6,2.5
		C2.9,31.9,2,34,2,36.3c0,2.3,0.9,4.4,2.5,6c3.3,3.3,8.7,3.4,12.1,0c3.3-3.3,3.4-8.7,0-12.1C14.9,28.6,12.7,27.8,10.5,27.8"/>
	<path clip-path="url(#SVGID_2_)" fill="#30333C" d="M25.1,20.5c0.4-0.4,1-0.4,1.4,0c0.4,0.4,0.4,1,0,1.4l-5.7,5.6
		c-0.4,0.4-1,0.4-1.4,0c-0.4-0.4-0.4-1,0-1.4L25.1,20.5z"/>
</g>
</svg>
