<?xml version="1.0" encoding="utf-8"?>
<!-- Generator: Adobe Illustrator 18.0.0, SVG Export Plug-In . SVG Version: 6.00 Build 0)  -->
<!DOCTYPE svg PUBLIC "-//W3C//DTD SVG 1.1//EN" "http://www.w3.org/Graphics/SVG/1.1/DTD/svg11.dtd">
<svg version="1.1" id="Layer_1" xmlns="http://www.w3.org/2000/svg" xmlns:xlink="http://www.w3.org/1999/xlink" x="0px" y="0px"
	 viewBox="0 0 43.3 51" enable-background="new 0 0 43.3 51" xml:space="preserve">
<g>
	<defs>
		<rect id="SVGID_1_" y="0" width="43.3" height="51"/>
	</defs>
	<clipPath id="SVGID_2_">
		<use xlink:href="#SVGID_1_"  overflow="visible"/>
	</clipPath>
	<path clip-path="url(#SVGID_2_)" fill="#30333C" d="M42.3,44.7H30.6c-0.6,0-1-0.4-1-1s0.4-1,1-1h10.7v-29L29.5,2H14v5.2
		c0,0.6-0.4,1-1,1s-1-0.4-1-1V1c0-0.6,0.4-1,1-1h17c0.3,0,0.5,0.1,0.7,0.3L43,12.6c0.2,0.2,0.3,0.4,0.3,0.7v30.4
		C43.3,44.2,42.9,44.7,42.3,44.7"/>
	<path clip-path="url(#SVGID_2_)" fill="#30333C" d="M42.3,14.3H30c-0.6,0-1-0.4-1-1V1c0-0.4,0.2-0.8,0.6-0.9
		C30-0.1,30.4,0,30.7,0.3L43,12.6c0.3,0.3,0.4,0.7,0.2,1.1C43.1,14.1,42.7,14.3,42.3,14.3 M31,12.3h8.9L31,3.4V12.3z"/>
	<path clip-path="url(#SVGID_2_)" fill="#30333C" d="M30.3,51H1c-0.6,0-1-0.4-1-1V7.3c0-0.6,0.4-1,1-1h17c0.3,0,0.5,0.1,0.7,0.3
		L31,18.9c0.2,0.2,0.3,0.4,0.3,0.7V50C31.3,50.6,30.9,51,30.3,51 M2,49h27.3V20L17.5,8.3H2V49z"/>
	<path clip-path="url(#SVGID_2_)" fill="#30333C" d="M30.3,20.7H18c-0.6,0-1-0.4-1-1V7.3c0-0.4,0.2-0.8,0.6-0.9
		c0.4-0.2,0.8-0.1,1.1,0.2L31,19c0.3,0.3,0.4,0.7,0.2,1.1C31.1,20.4,30.7,20.7,30.3,20.7 M19,18.7h8.9L19,9.7V18.7z"/>
</g>
</svg>
