<?xml version="1.0" encoding="utf-8"?>
<!-- Generator: Adobe Illustrator 18.0.0, SVG Export Plug-In . SVG Version: 6.00 Build 0)  -->
<!DOCTYPE svg PUBLIC "-//W3C//DTD SVG 1.1//EN" "http://www.w3.org/Graphics/SVG/1.1/DTD/svg11.dtd">
<svg version="1.1" id="Layer_1" xmlns="http://www.w3.org/2000/svg" xmlns:xlink="http://www.w3.org/1999/xlink" x="0px" y="0px"
	 viewBox="0 0 57 47" enable-background="new 0 0 57 47" xml:space="preserve">
<g>
	<defs>
		<rect id="SVGID_1_" y="0" width="57" height="47"/>
	</defs>
	<clipPath id="SVGID_2_">
		<use xlink:href="#SVGID_1_"  overflow="visible"/>
	</clipPath>
	<path clip-path="url(#SVGID_2_)" fill="#30333C" d="M53,38H4c-2.2,0-4-2-4-4.4V4.4C0,2,1.8,0,4,0h49c2.2,0,4,2,4,4.4v29.2
		C57,36,55.2,38,53,38 M4,2C2.9,2,2,3.1,2,4.4v29.2C2,34.9,2.9,36,4,36h49c1.1,0,2-1.1,2-2.4V4.4C55,3.1,54.1,2,53,2H4z"/>
	<rect x="27.5" y="37" clip-path="url(#SVGID_2_)" fill="#30333C" width="2" height="8"/>
	<rect x="18" y="45" clip-path="url(#SVGID_2_)" fill="#30333C" width="21" height="2"/>
	<path clip-path="url(#SVGID_2_)" fill="#30333C" d="M53,38H4c-2.2,0-4-2-4-4.4v-5.5c0-0.6,0.4-1,1-1L56,27h0c0.3,0,0.5,0.1,0.7,0.3
		S57,27.7,57,28v5.6C57,36,55.2,38,53,38 M2,29.1v4.5C2,34.9,2.9,36,4,36h49c1.1,0,2-1.1,2-2.4V29L2,29.1z"/>
	<path clip-path="url(#SVGID_2_)" fill="#30333C" d="M30,32.5c0,0.8-0.7,1.5-1.5,1.5c-0.8,0-1.5-0.7-1.5-1.5c0-0.8,0.7-1.5,1.5-1.5
		C29.3,31,30,31.7,30,32.5"/>
	<path clip-path="url(#SVGID_2_)" fill="#30333C" d="M53,38H4c-2.2,0-4-2-4-4.4V4.4C0,2,1.8,0,4,0h49c2.2,0,4,2,4,4.4v29.2
		C57,36,55.2,38,53,38 M4,2C2.9,2,2,3.1,2,4.4v29.2C2,34.9,2.9,36,4,36h49c1.1,0,2-1.1,2-2.4V4.4C55,3.1,54.1,2,53,2H4z"/>
	<path clip-path="url(#SVGID_2_)" fill="#30333C" d="M53,38H4c-2.2,0-4-2-4-4.4V4.4C0,2,1.8,0,4,0h49c2.2,0,4,2,4,4.4v29.2
		C57,36,55.2,38,53,38 M4,2C2.9,2,2,3.1,2,4.4v29.2C2,34.9,2.9,36,4,36h49c1.1,0,2-1.1,2-2.4V4.4C55,3.1,54.1,2,53,2H4z"/>
</g>
</svg>
