<?xml version="1.0" encoding="utf-8"?>
<!-- Generator: Adobe Illustrator 18.0.0, SVG Export Plug-In . SVG Version: 6.00 Build 0)  -->
<!DOCTYPE svg PUBLIC "-//W3C//DTD SVG 1.1//EN" "http://www.w3.org/Graphics/SVG/1.1/DTD/svg11.dtd">
<svg version="1.1" id="Layer_1" xmlns="http://www.w3.org/2000/svg" xmlns:xlink="http://www.w3.org/1999/xlink" x="0px" y="0px"
	 viewBox="0 0 47.2 52" enable-background="new 0 0 47.2 52" xml:space="preserve">
<g>
	<defs>
		<rect id="SVGID_1_" y="0" width="47.2" height="52"/>
	</defs>
	<clipPath id="SVGID_2_">
		<use xlink:href="#SVGID_1_"  overflow="visible"/>
	</clipPath>
	<path clip-path="url(#SVGID_2_)" fill="#30333C" d="M28.3,35.5C28.2,35.5,28.2,35.5,28.3,35.5c-0.4,0-0.8-0.3-0.9-0.6l-4.5-10.6
		l-11.3-2.3c-0.4-0.1-0.7-0.4-0.8-0.7c-0.1-0.4,0-0.8,0.3-1l8.7-7.6L18.4,1.1c0-0.4,0.1-0.7,0.5-1c0.3-0.2,0.7-0.2,1.1,0l9.9,5.9
		l10.5-4.8c0.3-0.2,0.8-0.1,1,0.1c0.3,0.2,0.4,0.6,0.3,1l-2.6,11.3l7.8,8.5c0.3,0.3,0.3,0.7,0.2,1c-0.1,0.4-0.5,0.6-0.8,0.6l-11.5,1
		L29.1,35C28.9,35.3,28.6,35.5,28.3,35.5 M13.8,20.4l9.9,2c0.3,0.1,0.6,0.3,0.7,0.6l4,9.3l4.9-8.8c0.2-0.3,0.5-0.5,0.8-0.5l10-0.9
		l-6.8-7.4c-0.2-0.2-0.3-0.6-0.2-0.9l2.2-9.8l-9.1,4.2c-0.3,0.1-0.6,0.1-0.9,0l-8.6-5.2l1.2,10c0,0.3-0.1,0.7-0.3,0.9L13.8,20.4z"/>
	<line clip-path="url(#SVGID_2_)" fill="#F9BF3B" x1="23.5" y1="23.3" x2="1" y2="51"/>
	<path clip-path="url(#SVGID_2_)" fill="#30333C" d="M1,52c-0.2,0-0.4-0.1-0.6-0.2c-0.4-0.3-0.5-1-0.1-1.4l22.5-27.6
		c0.3-0.4,1-0.5,1.4-0.1c0.4,0.3,0.5,1,0.1,1.4L1.8,51.6C1.6,51.9,1.3,52,1,52"/>
</g>
</svg>
